<svg width="512" height="512" viewBox="0 0 64 64" fill="none" xmlns="http://www.w3.org/2000/svg">
  <rect x="5" y="5" width="54" height="54" rx="14" fill="#FFFDF8"/>
  <rect x="5" y="5" width="54" height="54" rx="14" stroke="#E6DDCF" stroke-width="2"/>
  <path d="M18 20.5C23.1 18.2 28 18.8 32 22.3V47C28 43.6 23 42.9 18 45.2V20.5Z" fill="#F7F3EC" stroke="#2B2622" stroke-width="2.4" stroke-linecap="round" stroke-linejoin="round"/>
  <path d="M46 20.5C40.9 18.2 36 18.8 32 22.3V47C36 43.6 41 42.9 46 45.2V20.5Z" fill="#F7F3EC" stroke="#2B2622" stroke-width="2.4" stroke-linecap="round" stroke-linejoin="round"/>
  <path d="M23 27.5H27.8M23 33H28.8" stroke="#9C6B3F" stroke-width="2.3" stroke-linecap="round"/>
  <path d="M39.8 27.5H41.2M36.3 33H41.2" stroke="#9C6B3F" stroke-width="2.3" stroke-linecap="round"/>
  <path d="M39.3 16.5C44.9 16.5 49.5 20.1 49.5 24.6C49.5 27.5 47.6 30 44.8 31.4L45.4 36L40.9 32.6H39.3C33.6 32.6 29 29 29 24.6C29 20.1 33.6 16.5 39.3 16.5Z" fill="#9C6B3F" stroke="#FFFDF8" stroke-width="2.2" stroke-linecap="round" stroke-linejoin="round"/>
  <circle cx="36.2" cy="24.7" r="1.35" fill="#FFFDF8"/>
  <circle cx="40.2" cy="24.7" r="1.35" fill="#FFFDF8"/>
  <circle cx="44.2" cy="24.7" r="1.35" fill="#FFFDF8"/>
</svg>
